<svg width="14" height="14" viewBox="0 0 14 14" fill="none" xmlns="http://www.w3.org/2000/svg">
<mask id="path-1-outside-1" maskUnits="userSpaceOnUse" x="0" y="0" width="14" height="14" fill="black">
<rect fill="white" width="14" height="14"/>
<path fill-rule="evenodd" clip-rule="evenodd" d="M12.3333 7C12.3333 9.94552 9.94552 12.3333 7 12.3333C4.05448 12.3333 1.66667 9.94552 1.66667 7C1.66667 4.05448 4.05448 1.66667 7 1.66667C9.94552 1.66667 12.3333 4.05448 12.3333 7ZM13 7C13 10.3137 10.3137 13 7 13C3.68629 13 1 10.3137 1 7C1 3.68629 3.68629 1 7 1C10.3137 1 13 3.68629 13 7ZM8.32 5.736C8.34133 5.72 8.36267 5.69733 8.384 5.668L8.572 5.412C8.404 5.244 8.21067 5.11467 7.992 5.024C7.776 4.93067 7.52533 4.884 7.24 4.884C6.93333 4.884 6.66133 4.936 6.424 5.04C6.18933 5.144 5.99067 5.28933 5.828 5.476C5.668 5.66 5.54533 5.88 5.46 6.136C5.37733 6.392 5.336 6.67067 5.336 6.972C5.336 7.30267 5.38133 7.59733 5.472 7.856C5.56267 8.11467 5.688 8.33333 5.848 8.512C6.008 8.688 6.196 8.82267 6.412 8.916C6.63067 9.00933 6.86667 9.056 7.12 9.056C7.26667 9.056 7.41067 9.044 7.552 9.02C7.69333 8.996 7.828 8.95867 7.956 8.908C8.08667 8.85467 8.208 8.78933 8.32 8.712C8.432 8.63467 8.532 8.54133 8.62 8.432L8.42 8.172C8.388 8.12667 8.34267 8.104 8.284 8.104C8.236 8.104 8.18667 8.12533 8.136 8.168C8.088 8.208 8.02667 8.25333 7.952 8.304C7.88 8.35467 7.788 8.40133 7.676 8.444C7.564 8.484 7.42133 8.504 7.248 8.504C7.06667 8.504 6.90267 8.47067 6.756 8.404C6.612 8.33467 6.488 8.236 6.384 8.108C6.28267 7.97733 6.204 7.81733 6.148 7.628C6.092 7.436 6.064 7.21733 6.064 6.972C6.064 6.73733 6.08933 6.52533 6.14 6.336C6.19333 6.14667 6.27067 5.98533 6.372 5.852C6.476 5.71867 6.604 5.61733 6.756 5.548C6.908 5.476 7.084 5.44 7.284 5.44C7.43333 5.44 7.55867 5.45733 7.66 5.492C7.764 5.524 7.85067 5.56 7.92 5.6C7.992 5.64 8.052 5.67733 8.1 5.712C8.148 5.744 8.192 5.76 8.232 5.76C8.26933 5.76 8.29867 5.752 8.32 5.736Z"/>
</mask>
<path fill-rule="evenodd" clip-rule="evenodd" d="M12.3333 7C12.3333 9.94552 9.94552 12.3333 7 12.3333C4.05448 12.3333 1.66667 9.94552 1.66667 7C1.66667 4.05448 4.05448 1.66667 7 1.66667C9.94552 1.66667 12.3333 4.05448 12.3333 7ZM13 7C13 10.3137 10.3137 13 7 13C3.68629 13 1 10.3137 1 7C1 3.68629 3.68629 1 7 1C10.3137 1 13 3.68629 13 7ZM8.32 5.736C8.34133 5.72 8.36267 5.69733 8.384 5.668L8.572 5.412C8.404 5.244 8.21067 5.11467 7.992 5.024C7.776 4.93067 7.52533 4.884 7.24 4.884C6.93333 4.884 6.66133 4.936 6.424 5.04C6.18933 5.144 5.99067 5.28933 5.828 5.476C5.668 5.66 5.54533 5.88 5.46 6.136C5.37733 6.392 5.336 6.67067 5.336 6.972C5.336 7.30267 5.38133 7.59733 5.472 7.856C5.56267 8.11467 5.688 8.33333 5.848 8.512C6.008 8.688 6.196 8.82267 6.412 8.916C6.63067 9.00933 6.86667 9.056 7.12 9.056C7.26667 9.056 7.41067 9.044 7.552 9.02C7.69333 8.996 7.828 8.95867 7.956 8.908C8.08667 8.85467 8.208 8.78933 8.32 8.712C8.432 8.63467 8.532 8.54133 8.62 8.432L8.42 8.172C8.388 8.12667 8.34267 8.104 8.284 8.104C8.236 8.104 8.18667 8.12533 8.136 8.168C8.088 8.208 8.02667 8.25333 7.952 8.304C7.88 8.35467 7.788 8.40133 7.676 8.444C7.564 8.484 7.42133 8.504 7.248 8.504C7.06667 8.504 6.90267 8.47067 6.756 8.404C6.612 8.33467 6.488 8.236 6.384 8.108C6.28267 7.97733 6.204 7.81733 6.148 7.628C6.092 7.436 6.064 7.21733 6.064 6.972C6.064 6.73733 6.08933 6.52533 6.14 6.336C6.19333 6.14667 6.27067 5.98533 6.372 5.852C6.476 5.71867 6.604 5.61733 6.756 5.548C6.908 5.476 7.084 5.44 7.284 5.44C7.43333 5.44 7.55867 5.45733 7.66 5.492C7.764 5.524 7.85067 5.56 7.92 5.6C7.992 5.64 8.052 5.67733 8.1 5.712C8.148 5.744 8.192 5.76 8.232 5.76C8.26933 5.76 8.29867 5.752 8.32 5.736Z" fill="white"/>
<path d="M8.384 5.668L8.2228 5.54962L8.22225 5.55037L8.384 5.668ZM8.32 5.736L8.44 5.896L8.44 5.896L8.32 5.736ZM8.572 5.412L8.7332 5.53038L8.83483 5.39199L8.71342 5.27058L8.572 5.412ZM7.992 5.024L7.91266 5.20761L7.9154 5.20875L7.992 5.024ZM6.424 5.04L6.34373 4.85681L6.34296 4.85715L6.424 5.04ZM5.828 5.476L5.67722 5.3446L5.67708 5.34476L5.828 5.476ZM5.46 6.136L5.27026 6.07275L5.26968 6.07454L5.46 6.136ZM5.848 8.512L5.69901 8.64543L5.70001 8.64653L5.848 8.512ZM6.412 8.916L6.33267 9.0996L6.33349 9.09994L6.412 8.916ZM7.552 9.02L7.58548 9.21718L7.58548 9.21718L7.552 9.02ZM7.956 8.908L8.02961 9.09397L8.03158 9.09317L7.956 8.908ZM8.62 8.432L8.7758 8.5574L8.87448 8.4348L8.77852 8.31006L8.62 8.432ZM8.42 8.172L8.25647 8.28743L8.26148 8.29394L8.42 8.172ZM8.136 8.168L8.26404 8.32165L8.26483 8.32098L8.136 8.168ZM7.952 8.304L7.83968 8.13848L7.8369 8.14044L7.952 8.304ZM7.676 8.444L7.74328 8.63239L7.7472 8.6309L7.676 8.444ZM6.756 8.404L6.66922 8.58424L6.67324 8.58607L6.756 8.404ZM6.384 8.108L6.22592 8.2306L6.22878 8.23412L6.384 8.108ZM6.148 7.628L5.956 7.684L5.95621 7.68473L6.148 7.628ZM6.14 6.336L5.94748 6.28177L5.9468 6.2843L6.14 6.336ZM6.372 5.852L6.21429 5.72898L6.21277 5.73098L6.372 5.852ZM6.756 5.548L6.83901 5.72998L6.84162 5.72875L6.756 5.548ZM7.66 5.492L7.59523 5.68132L7.60118 5.68316L7.66 5.492ZM7.92 5.6L7.82004 5.77326L7.82287 5.77483L7.92 5.6ZM8.1 5.712L7.98282 5.87425L7.98906 5.87841L8.1 5.712ZM7 12.5333C10.056 12.5333 12.5333 10.056 12.5333 7H12.1333C12.1333 9.83506 9.83506 12.1333 7 12.1333V12.5333ZM1.46667 7C1.46667 10.056 3.94402 12.5333 7 12.5333V12.1333C4.16494 12.1333 1.86667 9.83506 1.86667 7H1.46667ZM7 1.46667C3.94402 1.46667 1.46667 3.94402 1.46667 7H1.86667C1.86667 4.16494 4.16494 1.86667 7 1.86667V1.46667ZM12.5333 7C12.5333 3.94402 10.056 1.46667 7 1.46667V1.86667C9.83506 1.86667 12.1333 4.16494 12.1333 7H12.5333ZM7 13.2C10.4242 13.2 13.2 10.4242 13.2 7H12.8C12.8 10.2033 10.2033 12.8 7 12.8V13.2ZM0.8 7C0.8 10.4242 3.57583 13.2 7 13.2V12.8C3.79675 12.8 1.2 10.2033 1.2 7H0.8ZM7 0.8C3.57583 0.8 0.8 3.57583 0.8 7H1.2C1.2 3.79675 3.79675 1.2 7 1.2V0.8ZM13.2 7C13.2 3.57583 10.4242 0.8 7 0.8V1.2C10.2033 1.2 12.8 3.79675 12.8 7H13.2ZM8.22225 5.55037C8.20873 5.56896 8.20081 5.57539 8.2 5.576L8.44 5.896C8.48185 5.86461 8.5166 5.82571 8.54575 5.78563L8.22225 5.55037ZM8.4108 5.29362L8.2228 5.54962L8.5452 5.78638L8.7332 5.53038L8.4108 5.29362ZM7.9154 5.20875C8.10973 5.28933 8.28106 5.40391 8.43058 5.55342L8.71342 5.27058C8.52694 5.08409 8.3116 4.94001 8.0686 4.83925L7.9154 5.20875ZM7.24 5.084C7.50372 5.084 7.72645 5.12713 7.91267 5.20759L8.07133 4.84041C7.82555 4.73421 7.54695 4.684 7.24 4.684V5.084ZM6.50427 5.22318C6.71209 5.13212 6.95597 5.084 7.24 5.084V4.684C6.9107 4.684 6.61058 4.73988 6.34373 4.85682L6.50427 5.22318ZM5.97878 5.6074C6.12153 5.44359 6.29609 5.31545 6.50503 5.22285L6.34296 4.85715C6.08258 4.97255 5.8598 5.13508 5.67722 5.3446L5.97878 5.6074ZM5.64974 6.19925C5.72763 5.96557 5.83797 5.76933 5.97892 5.60724L5.67708 5.34476C5.49803 5.55067 5.36304 5.79443 5.27026 6.07275L5.64974 6.19925ZM5.536 6.972C5.536 6.68906 5.57479 6.43138 5.65032 6.19746L5.26968 6.07454C5.17988 6.35262 5.136 6.65228 5.136 6.972H5.536ZM5.66074 7.78984C5.57888 7.55631 5.536 7.28464 5.536 6.972H5.136C5.136 7.32069 5.18378 7.63836 5.28326 7.92216L5.66074 7.78984ZM5.99699 8.37858C5.85686 8.2221 5.74394 8.02721 5.66074 7.78984L5.28326 7.92216C5.38139 8.20212 5.51914 8.44457 5.69901 8.64542L5.99699 8.37858ZM6.49133 8.73241C6.30174 8.65048 6.13707 8.53265 5.99599 8.37747L5.70001 8.64653C5.87893 8.84335 6.09026 8.99485 6.33267 9.09959L6.49133 8.73241ZM7.12 8.856C6.89186 8.856 6.68276 8.81411 6.49051 8.73206L6.33349 9.09994C6.57857 9.20455 6.84147 9.256 7.12 9.256V8.856ZM7.51852 8.82282C7.3885 8.8449 7.25571 8.856 7.12 8.856V9.256C7.27763 9.256 7.43284 9.2431 7.58548 9.21718L7.51852 8.82282ZM7.88239 8.72204C7.76786 8.76737 7.64669 8.80106 7.51852 8.82282L7.58548 9.21718C7.73998 9.19094 7.88814 9.14996 8.02961 9.09396L7.88239 8.72204ZM8.20636 8.54742C8.1067 8.61624 7.99819 8.67476 7.88042 8.72283L8.03158 9.09317C8.17515 9.03457 8.3093 8.96243 8.43364 8.87658L8.20636 8.54742ZM8.4642 8.3066C8.38791 8.40138 8.302 8.48138 8.20636 8.54742L8.43364 8.87658C8.562 8.78795 8.67609 8.68129 8.7758 8.5574L8.4642 8.3066ZM8.26148 8.29394L8.46147 8.55394L8.77852 8.31006L8.57852 8.05006L8.26148 8.29394ZM8.284 8.304C8.28718 8.304 8.28173 8.30447 8.27256 8.29989C8.26826 8.29774 8.26447 8.29512 8.26143 8.29244C8.25845 8.28983 8.25695 8.28782 8.25661 8.28734L8.58339 8.05666C8.51146 7.95475 8.40326 7.904 8.284 7.904V8.304ZM8.26483 8.32098C8.27857 8.30941 8.28719 8.30495 8.29038 8.30357C8.29299 8.30244 8.2904 8.304 8.284 8.304V7.904C8.17366 7.904 8.08026 7.95347 8.00717 8.01502L8.26483 8.32098ZM8.0643 8.46949C8.14224 8.4166 8.20932 8.36724 8.26404 8.32164L8.00796 8.01436C7.96668 8.04876 7.91109 8.09006 7.8397 8.13851L8.0643 8.46949ZM7.7472 8.6309C7.86956 8.58428 7.9776 8.53054 8.0671 8.46756L7.8369 8.14044C7.7824 8.17879 7.70644 8.21838 7.6048 8.2571L7.7472 8.6309ZM7.248 8.704C7.43472 8.704 7.60223 8.68272 7.74327 8.63235L7.60873 8.25565C7.52577 8.28528 7.40794 8.304 7.248 8.304V8.704ZM6.67324 8.58607C6.84898 8.66596 7.04171 8.704 7.248 8.704V8.304C7.09162 8.304 6.95635 8.27538 6.83876 8.22193L6.67324 8.58607ZM6.22878 8.23412C6.35073 8.38421 6.49786 8.50168 6.66924 8.5842L6.84276 8.2238C6.72614 8.16765 6.62527 8.08779 6.53922 7.98188L6.22878 8.23412ZM5.95621 7.68473C6.01793 7.89339 6.10673 8.07683 6.22596 8.23056L6.54204 7.98544C6.4586 7.87784 6.39007 7.74128 6.33979 7.57127L5.95621 7.68473ZM5.864 6.972C5.864 7.23217 5.89365 7.47024 5.956 7.684L6.34 7.572C6.29035 7.40176 6.264 7.2025 6.264 6.972H5.864ZM5.9468 6.2843C5.89084 6.49342 5.864 6.72319 5.864 6.972H6.264C6.264 6.75147 6.28783 6.55724 6.3332 6.3877L5.9468 6.2843ZM6.21277 5.73098C6.09385 5.88746 6.00646 6.07243 5.94749 6.28177L6.33251 6.39023C6.3802 6.22091 6.44749 6.08321 6.53123 5.97302L6.21277 5.73098ZM6.673 5.36604C6.49135 5.44889 6.33784 5.57061 6.2143 5.72899L6.5297 5.97501C6.61416 5.86673 6.71665 5.78577 6.839 5.72996L6.673 5.36604ZM7.284 5.24C7.05993 5.24 6.85374 5.2804 6.67038 5.36725L6.84162 5.72875C6.96226 5.6716 7.10807 5.64 7.284 5.64V5.24ZM7.72474 5.30277C7.59614 5.25877 7.44735 5.24 7.284 5.24V5.64C7.41932 5.64 7.5212 5.65589 7.59526 5.68123L7.72474 5.30277ZM8.01994 5.42676C7.93393 5.37714 7.83241 5.3358 7.71882 5.30084L7.60118 5.68316C7.69559 5.7122 7.76741 5.74286 7.82006 5.77324L8.01994 5.42676ZM8.2171 5.54986C8.16077 5.50918 8.09358 5.46764 8.01713 5.42517L7.82287 5.77483C7.89042 5.81236 7.94323 5.84548 7.9829 5.87414L8.2171 5.54986ZM8.232 5.56C8.23891 5.56 8.2411 5.56141 8.23735 5.56004C8.23335 5.55859 8.22459 5.55469 8.21094 5.54559L7.98906 5.87841C8.05608 5.92309 8.13864 5.96 8.232 5.96V5.56ZM8.2 5.576C8.22472 5.55746 8.24295 5.56 8.232 5.56V5.96C8.29572 5.96 8.37261 5.94654 8.44 5.896L8.2 5.576Z" fill="white" mask="url(#path-1-outside-1)"/>
</svg>
